<svg width="0" height="0" class="hidden">
  <symbol version="1.1" id="total-author" xmlns="http://www.w3.org/2000/svg" xmlns:xlink="http://www.w3.org/1999/xlink" x="0px" y="0px" xml:space="preserve" viewBox="0 0 512 512">
    <g>
      <g>
        <path d="M470.552,17.851C458.921,6.219,442.781,0.257,423.3,0.05V0H23.659v512h280.701l111.044-111.043V217.549l5.904-6.772
			l-9.257-22.392l41.61-22.54l2.35-3.922C493.213,99.808,498.65,45.95,470.552,17.851z M358.401,410.738l-44.26,44.26v-44.26
			L358.401,410.738L358.401,410.738z M382.011,377.347H280.747v101.261H57.05V33.391h267.783
			c-23.024,13.978-46.285,31.823-68.273,52.567l-3.24,3.056l-13.234,43.844l-23.275-4.568l-6.312,8.073
			c-46.516,59.5-47.568,139.067-46.571,164.5l-51.223,51.223l23.611,23.611l51.869-51.869
			c26.889-1.346,123.543-10.455,193.826-71.962V377.347z M429.653,140.872l-59.951,32.477l12.792,30.944
			c-4.263,4.657-8.652,9.244-13.114,13.706c-42.817,42.817-102.38,60.418-143.014,67.647l99.989-99.989l-23.611-23.611
			L198.289,266.502c2.509-28.808,10.289-68.453,32.59-101.424l32.441,6.368l19.381-64.213
			c33.601-31.056,69.722-54.486,102.098-66.176c13.329-4.813,25.332-7.363,35.446-7.667h3.055v-0.02
			c10.301,0.169,18.414,2.864,23.641,8.091C462.314,56.835,455.319,96.471,429.653,140.872z"></path>
      </g>
    </g>
    <g></g>
    <g></g>
    <g></g>
    <g></g>
    <g></g>
    <g></g>
    <g></g>
    <g></g>
    <g></g>
    <g></g>
    <g></g>
    <g></g>
    <g></g>
    <g></g>
    <g></g>
  </symbol>
</svg>
