<svg width="0" height="0" class="hidden">
  <symbol version="1.1" id="total-books" xmlns="http://www.w3.org/2000/svg" xmlns:xlink="http://www.w3.org/1999/xlink" x="0px" y="0px" xml:space="preserve" viewBox="0 0 183.596 183.597">
    <g>
      <g>
        <path d="M154.727,42.278c-1.288,0.006-3.414,0.156-6.176,0.39c-0.291-4.18-0.969-8.314-1.605-12.463
			c-0.999-6.512-0.645-11.856,0.301-18.309c0.012-0.07-0.008-0.129-0.002-0.197c1.644,0.273,3.284,0.554,4.906,0.883
			c3.422,0.694,5.133-3.774,2.916-5.473c0.212-1.313-0.389-2.677-2.15-3.085C132.42-0.73,109.456-0.76,88.655,1.302
			c-15.969,1.583-43.316,6.37-45.211,26.7c-2.108,22.66,23.538,27.249,40.793,28.285c23.648,1.421,46.982-2.978,70.49-4.469
			c2.666-0.169,3.502-3.06,2.454-4.767C158.305,45.254,157.495,42.266,154.727,42.278z M54.775,24.372
			c6.549-14.609,35.233-14.463,48.173-14.9c13.049-0.441,26.68-0.22,39.825,1.564c-1.741,3.036-2.296,6.617-2.222,10.4
			c-11.237-0.879-23.459,1.469-34.57,2.159c-13.694,0.85-27.382,1.423-41.089,0.547c-1.483-0.095-1.397,2.072,0,2.255
			c13.644,1.78,27.361,1.705,41.089,1.271c11.249-0.356,23.66,0.078,34.896-1.859c0.199,1.558,0.461,3.127,0.776,4.69
			c-0.118-0.053-0.217-0.126-0.358-0.153c-13.133-2.515-27.272,0.257-40.389,1.689c-7.576,0.827-15.141,1.667-22.769,1.769
			c-5.321,0.071-9.902-1.551-14.991-2.193c-0.506-0.064-0.758,0.58-0.55,0.959c4.337,7.898,24.908,4.417,31.704,3.923
			c15.391-1.119,31.027-3.988,46.471-2.272c0.698,0.078,1.201-0.258,1.525-0.74c0.769,3.35,1.635,6.604,2.271,9.54
			C115.375,45.651,41.963,52.95,54.775,24.372z"></path>
        <path d="M122.637,70.961c-14.959-4.185-32.17-2.801-47.552-3.215c-14.125-0.381-29.263-1.466-43.289,0.76
			c-2.89,0.458-2.744,3.775-0.925,5.274c-0.251,0.452-0.353,0.997-0.299,1.52c-0.042,0.054-0.092,0.097-0.132,0.154
			c-1.316,1.884,0.475,3.64,2.299,3.679c0.679,0.969,1.316,1.976,1.707,3.265c0.884,2.907,0.769,6.132,0.675,9.133
			c-0.139,4.463-1.975,9.104-2.163,13.561c-0.694,0.048-1.39,0.076-2.084,0.129c-2.623,0.201-2.616,3.856,0,4.067
			c0.782,0.063,1.564,0.106,2.347,0.163c5.592,2.036,19.477,1.466,28.475,0.848c6.806-0.066,13.615-0.306,20.429-0.686
			c21.064,0.88,45.072,5.158,61.868-8.029C162.221,87.271,134.727,74.343,122.637,70.961z M127.075,102.788
			c1.293-0.479,2.557-1.036,3.758-1.67c0.191,0.067,0.385,0.128,0.578,0.175C129.991,101.86,128.549,102.373,127.075,102.788z
			 M127.018,95.922c-12.559,6.353-28.971,7.129-43.667,7.586c-4.297-0.234-8.493-0.344-12.492-0.117
			c-3.655,0.205-7.304,0.503-10.954,0.8c-7.386,0.133-14.771,0.235-22.148,0.604c1.924-3.938,3.113-9.97,3.109-15.742
			c9.053,0.644,18.237,0.475,27.292,0.637c8.152,0.145,17.978,1.853,25.902-0.217c1.394-0.364,1.394-2.447,0-2.812
			c-7.923-2.07-17.75-0.362-25.902-0.217c-9.072,0.161-18.272-0.008-27.341,0.641c-0.162-3.22-0.717-6.272-1.773-8.72
			c2.642-0.071,5.581-0.046,7.189-0.128c7.293-0.372,14.628-0.146,21.928-0.144c9.096,0.002,18.143,0.028,27.22,0.659
			c9.951,0.691,20.108,1.937,29.507,5.428C132.598,87.042,134.653,92.062,127.018,95.922z"></path>
        <path d="M168.54,142.874c-7.851-18.828-33.834-21.256-51.111-22.189c-33.013-1.784-66.37,0.201-99.42,0.772
			c-1.789-1.321-5.06-0.539-5.06,2.368c0,1.454,0,2.907,0,4.361c0,1.722,1.411,3.058,3.1,3.1c1.953,0.049,3.906,0.067,5.858,0.07
			c0.042,0.169,0.088,0.338,0.172,0.51c1.599,3.275,3.827,5.499,4.721,9.261c0.194,0.814,0.327,1.645,0.435,2.48
			c-0.143,0.375-0.12,0.775,0.121,1.057c0.289,3.179,0.081,6.448-0.18,9.567c-0.344,4.122-1.196,8.201-2.357,12.165
			c-0.098,0.337-0.529,1.993-0.971,3.54c-2.933,0.401-5.802,1.188-7.914,2.878c-2.611,2.089-3.739,7.207-0.156,9.142
			c4.798,2.593,11.356,1.446,16.526,1.006c9.48-0.807,18.839-1.384,28.37-1.617c15.584-0.381,31.212-0.513,46.8-0.294
			c10.525,0.148,21.128,0.726,31.585-0.823C157.066,177.562,177.301,163.883,168.54,142.874z M128.252,127.268
			c0.057,0.158,0.166,0.295,0.271,0.436c-2.729-0.425-5.463-0.807-8.205-1.127C122.977,126.721,125.629,126.945,128.252,127.268z
			 M145.974,172.65c1.256-0.604,2.479-1.274,3.679-1.989c0.43,0.152,0.869,0.243,1.311,0.286
			C149.365,171.632,147.691,172.196,145.974,172.65z M151.346,162.038c-6.146,6.021-15.444,8.205-23.633,9.615
			c-31.797,5.478-64.787-3.123-96.84-2.186c-0.656,0.021-1.35,0.041-2.061,0.068c1.401-2.739,2.202-6.235,2.727-9.359
			c15.972,1.736,32.223,2.614,48.249,3.665c13.406,0.878,33.005,3.288,45.278-3.646c1.435-0.812,0.868-3.312-0.866-3.196
			c-6.842,0.456-13.554,2.318-20.465,2.759c-7.96,0.509-15.987,0.215-23.947-0.129c-15.712-0.679-32.057-3.566-47.809-2.384
			c0.115-0.849,0.219-1.65,0.31-2.321c0.302-2.227,0.598-5.688,0.511-9.369c15.259,1.442,31.265-0.449,46.439-0.93
			c9.403-0.297,18.809-0.348,28.213-0.101c9.118,0.239,18.135,1.922,27.215,2.147c2.222,0.056,2.517-3.112,0.508-3.754
			c-16.315-5.21-35.93-3.496-52.795-2.84c-16.456,0.64-33.314,0.807-49.762,2.27c-0.392-4.272-1.432-8.462-3.721-11.058
			c22.381-0.448,44.72-2.889,67.095-0.723c11.276,1.091,22.547,1.725,33.742,3.575c8.387,1.386,26.297,3.562,29.51,13.291
			C161.032,152.845,154.663,158.79,151.346,162.038z"></path>
        <path d="M113.734,93.157c-15.62-0.704-32.031-0.278-47.62,0.987c-2.556,0.208-23.978,0.792-24.477,2.725
			c0.078-0.301-0.29-0.509-0.512-0.298c-3.229,3.063,14.338,2.319,14.917,2.274c19.204-1.448,38.458-0.896,57.692-1.916
			C116.161,96.802,116.17,93.268,113.734,93.157z"></path>
      </g>
    </g>
    <g></g>
    <g></g>
    <g></g>
    <g></g>
    <g></g>
    <g></g>
    <g></g>
    <g></g>
    <g></g>
    <g></g>
    <g></g>
    <g></g>
    <g></g>
    <g></g>
    <g></g>
  </symbol>
</svg>
